<svg xmlns="http://www.w3.org/2000/svg" viewBox="0 0 39.93 39.74"><defs><style>.cls-1{fill:#fff;}</style></defs><title>Asset 1</title><g id="Layer_2" data-name="Layer 2"><g id="Layer_1-2" data-name="Layer 1"><g id="Layer_1-2-2" data-name="Layer 1-2"><path id="K-Logo" class="cls-1" d="M19.88,18.57a1.59,1.59,0,1,1-1.59,1.59,1.59,1.59,0,0,1,1.59-1.59Zm0-6.36a1.59,1.59,0,1,1-1.59,1.59A1.59,1.59,0,0,1,19.88,12.21Zm0,12.72a1.59,1.59,0,1,1-1.59,1.59,1.59,1.59,0,0,1,1.59-1.59ZM13.52,5.86a1.59,1.59,0,1,1-1.59,1.59h0A1.6,1.6,0,0,1,13.52,5.86Zm0,6.35a1.59,1.59,0,1,1-1.59,1.59,1.59,1.59,0,0,1,1.59-1.59Zm0,6.36a1.59,1.59,0,1,1-1.59,1.59,1.59,1.59,0,0,1,1.59-1.59Zm0,6.36a1.59,1.59,0,1,1-1.59,1.59,1.59,1.59,0,0,1,1.59-1.59Zm0,6.35a1.59,1.59,0,1,1-1.59,1.59h0A1.59,1.59,0,0,1,13.52,31.28Zm0,5.28a1.59,1.59,0,1,1-1.59,1.59,1.59,1.59,0,0,1,1.59-1.59ZM13.52,0a1.59,1.59,0,1,1-1.59,1.59A1.59,1.59,0,0,1,13.52,0ZM26.24,5.86a1.59,1.59,0,1,1-1.59,1.59h0A1.6,1.6,0,0,1,26.24,5.86Zm0,6.35a1.59,1.59,0,1,1-1.59,1.59,1.59,1.59,0,0,1,1.59-1.59Zm0,6.36a1.59,1.59,0,1,1-1.59,1.59,1.59,1.59,0,0,1,1.59-1.59Zm0,6.36a1.59,1.59,0,1,1-1.59,1.59,1.59,1.59,0,0,1,1.59-1.59Zm0,6.35a1.59,1.59,0,1,1-1.59,1.59h0A1.6,1.6,0,0,1,26.24,31.28Zm0,5.28a1.59,1.59,0,1,1-1.59,1.59,1.59,1.59,0,0,1,1.59-1.59ZM26.24,0a1.59,1.59,0,1,1-1.59,1.59A1.59,1.59,0,0,1,26.24,0Zm6.35,5.86A1.59,1.59,0,1,1,31,7.45h0A1.6,1.6,0,0,1,32.59,5.86Zm0,6.35A1.59,1.59,0,1,1,31,13.8a1.59,1.59,0,0,1,1.59-1.59Zm0,6.36A1.59,1.59,0,1,1,31,20.16a1.59,1.59,0,0,1,1.59-1.59Zm0,6.36A1.59,1.59,0,1,1,31,26.52a1.59,1.59,0,0,1,1.59-1.59Zm0,6.35A1.59,1.59,0,1,1,31,32.87h0A1.59,1.59,0,0,1,32.59,31.28Zm0,5.28A1.59,1.59,0,1,1,31,38.15a1.59,1.59,0,0,1,1.59-1.59ZM32.59,0A1.59,1.59,0,1,1,31,1.59,1.59,1.59,0,0,1,32.59,0Zm5.75,5.86a1.59,1.59,0,1,1-1.59,1.59h0A1.6,1.6,0,0,1,38.34,5.86Zm0,6.35a1.59,1.59,0,1,1-1.59,1.59,1.59,1.59,0,0,1,1.59-1.59Zm0,6.36a1.59,1.59,0,1,1-1.59,1.59,1.59,1.59,0,0,1,1.59-1.59Zm0,6.36a1.59,1.59,0,1,1-1.59,1.59,1.59,1.59,0,0,1,1.59-1.59Zm0,6.35a1.59,1.59,0,1,1-1.59,1.59h0A1.59,1.59,0,0,1,38.34,31.28Zm0,5.28a1.59,1.59,0,1,1-1.59,1.59,1.59,1.59,0,0,1,1.59-1.59ZM38.34,0a1.59,1.59,0,1,1-1.59,1.59A1.59,1.59,0,0,1,38.34,0ZM7.16,12.21a1.59,1.59,0,1,1-1.58,1.6h0A1.6,1.6,0,0,1,7.16,12.21Zm0,6.36a1.59,1.59,0,1,1-1.58,1.6h0A1.6,1.6,0,0,1,7.16,18.57Zm0,6.36a1.59,1.59,0,1,1-1.58,1.6h0A1.6,1.6,0,0,1,7.16,24.93Zm0,6.35a1.59,1.59,0,1,1-1.58,1.6h0A1.6,1.6,0,0,1,7.16,31.28Zm0,5.28a1.59,1.59,0,1,1-1.58,1.6h0A1.6,1.6,0,0,1,7.16,36.56Zm0-30.7a1.59,1.59,0,1,1-1.58,1.6v0A1.6,1.6,0,0,1,7.16,5.86ZM7.16,0A1.59,1.59,0,1,1,5.58,1.6h0A1.6,1.6,0,0,1,7.16,0ZM1.59,12.21A1.59,1.59,0,1,1,0,13.8a1.59,1.59,0,0,1,1.59-1.59Zm0,6.36A1.59,1.59,0,1,1,0,20.16a1.59,1.59,0,0,1,1.59-1.59Zm0,6.36A1.59,1.59,0,1,1,0,26.52a1.59,1.59,0,0,1,1.59-1.59Zm0,6.35A1.59,1.59,0,1,1,0,32.87H0A1.59,1.59,0,0,1,1.59,31.28Zm0,5.28A1.59,1.59,0,1,1,0,38.15a1.59,1.59,0,0,1,1.59-1.59Zm0-30.7A1.59,1.59,0,1,1,0,7.45H0A1.6,1.6,0,0,1,1.59,5.86ZM1.59,0A1.59,1.59,0,1,1,0,1.59,1.59,1.59,0,0,1,1.59,0Z"/></g></g></g></svg>