<?xml version="1.0" encoding="utf-8"?>
<!-- Generator: Adobe Illustrator 23.0.1, SVG Export Plug-In . SVG Version: 6.00 Build 0)  -->
<svg version="1.1" id="Layer_1" xmlns="http://www.w3.org/2000/svg" xmlns:xlink="http://www.w3.org/1999/xlink" x="0px" y="0px"
	 viewBox="0 0 39.9 39.7" style="enable-background:new 0 0 39.9 39.7;" xml:space="preserve">
<style type="text/css">
	.st0{fill:#FFFFFF;}
</style>
<title>Asset 1</title>
<g>
	<g id="Layer_1-2">
		<path id="K-Logo" class="st0" d="M19.9,18.6c0.9,0,1.6,0.7,1.6,1.6c0,0.9-0.7,1.6-1.6,1.6s-1.6-0.7-1.6-1.6S19,18.6,19.9,18.6
			L19.9,18.6z M19.9,12.2c0.9,0,1.6,0.7,1.6,1.6s-0.7,1.6-1.6,1.6s-1.6-0.7-1.6-1.6S19,12.2,19.9,12.2z M19.9,24.9
			c0.9,0,1.6,0.7,1.6,1.6c0,0.9-0.7,1.6-1.6,1.6s-1.6-0.7-1.6-1.6S19,24.9,19.9,24.9L19.9,24.9z M13.5,5.9c0.9,0,1.6,0.7,1.6,1.6
			c0,0.9-0.7,1.6-1.6,1.6c-0.9,0-1.6-0.7-1.6-1.6c0,0,0,0,0,0C11.9,6.6,12.6,5.9,13.5,5.9z M13.5,12.2c0.9,0,1.6,0.7,1.6,1.6
			s-0.7,1.6-1.6,1.6s-1.6-0.7-1.6-1.6S12.6,12.2,13.5,12.2L13.5,12.2z M13.5,18.6c0.9,0,1.6,0.7,1.6,1.6c0,0.9-0.7,1.6-1.6,1.6
			s-1.6-0.7-1.6-1.6S12.6,18.6,13.5,18.6L13.5,18.6z M13.5,24.9c0.9,0,1.6,0.7,1.6,1.6c0,0.9-0.7,1.6-1.6,1.6s-1.6-0.7-1.6-1.6
			S12.6,24.9,13.5,24.9L13.5,24.9z M13.5,31.3c0.9,0,1.6,0.7,1.6,1.6c0,0.9-0.7,1.6-1.6,1.6s-1.6-0.7-1.6-1.6l0,0
			C11.9,32,12.6,31.3,13.5,31.3z M13.5,36.6c0.9,0,1.6,0.7,1.6,1.6s-0.7,1.6-1.6,1.6s-1.6-0.7-1.6-1.6S12.6,36.6,13.5,36.6
			L13.5,36.6z M13.5,0c0.9,0,1.6,0.7,1.6,1.6s-0.7,1.6-1.6,1.6s-1.6-0.7-1.6-1.6S12.6,0,13.5,0C13.5,0,13.5,0,13.5,0z M26.2,5.9
			c0.9,0,1.6,0.7,1.6,1.6c0,0.9-0.7,1.6-1.6,1.6c-0.9,0-1.6-0.7-1.6-1.6c0,0,0,0,0,0C24.7,6.6,25.4,5.9,26.2,5.9z M26.2,12.2
			c0.9,0,1.6,0.7,1.6,1.6s-0.7,1.6-1.6,1.6s-1.6-0.7-1.6-1.6S25.4,12.2,26.2,12.2L26.2,12.2z M26.2,18.6c0.9,0,1.6,0.7,1.6,1.6
			c0,0.9-0.7,1.6-1.6,1.6s-1.6-0.7-1.6-1.6S25.4,18.6,26.2,18.6L26.2,18.6z M26.2,24.9c0.9,0,1.6,0.7,1.6,1.6c0,0.9-0.7,1.6-1.6,1.6
			s-1.6-0.7-1.6-1.6S25.4,24.9,26.2,24.9L26.2,24.9z M26.2,31.3c0.9,0,1.6,0.7,1.6,1.6c0,0.9-0.7,1.6-1.6,1.6
			c-0.9,0-1.6-0.7-1.6-1.6l0,0C24.7,32,25.4,31.3,26.2,31.3z M26.2,36.6c0.9,0,1.6,0.7,1.6,1.6s-0.7,1.6-1.6,1.6s-1.6-0.7-1.6-1.6
			S25.4,36.6,26.2,36.6L26.2,36.6z M26.2,0c0.9,0,1.6,0.7,1.6,1.6s-0.7,1.6-1.6,1.6c-0.9,0-1.6-0.7-1.6-1.6S25.4,0,26.2,0
			C26.2,0,26.2,0,26.2,0z M32.6,5.9c0.9,0,1.6,0.7,1.6,1.6c0,0.9-0.7,1.6-1.6,1.6C31.7,9,31,8.3,31,7.4c0,0,0,0,0,0
			C31,6.6,31.7,5.9,32.6,5.9z M32.6,12.2c0.9,0,1.6,0.7,1.6,1.6s-0.7,1.6-1.6,1.6S31,14.7,31,13.8S31.7,12.2,32.6,12.2L32.6,12.2z
			 M32.6,18.6c0.9,0,1.6,0.7,1.6,1.6c0,0.9-0.7,1.6-1.6,1.6S31,21,31,20.2S31.7,18.6,32.6,18.6L32.6,18.6z M32.6,24.9
			c0.9,0,1.6,0.7,1.6,1.6c0,0.9-0.7,1.6-1.6,1.6S31,27.4,31,26.5S31.7,24.9,32.6,24.9L32.6,24.9z M32.6,31.3c0.9,0,1.6,0.7,1.6,1.6
			c0,0.9-0.7,1.6-1.6,1.6c-0.9,0-1.6-0.7-1.6-1.6l0,0C31,32,31.7,31.3,32.6,31.3z M32.6,36.6c0.9,0,1.6,0.7,1.6,1.6
			s-0.7,1.6-1.6,1.6S31,39,31,38.2S31.7,36.6,32.6,36.6L32.6,36.6z M32.6,0c0.9,0,1.6,0.7,1.6,1.6s-0.7,1.6-1.6,1.6
			c-0.9,0-1.6-0.7-1.6-1.6S31.7,0,32.6,0C32.6,0,32.6,0,32.6,0z M38.3,5.9c0.9,0,1.6,0.7,1.6,1.6c0,0.9-0.7,1.6-1.6,1.6
			c-0.9,0-1.6-0.7-1.6-1.6c0,0,0,0,0,0C36.8,6.6,37.5,5.9,38.3,5.9z M38.3,12.2c0.9,0,1.6,0.7,1.6,1.6s-0.7,1.6-1.6,1.6
			s-1.6-0.7-1.6-1.6S37.5,12.2,38.3,12.2L38.3,12.2z M38.3,18.6c0.9,0,1.6,0.7,1.6,1.6c0,0.9-0.7,1.6-1.6,1.6s-1.6-0.7-1.6-1.6
			S37.5,18.6,38.3,18.6L38.3,18.6z M38.3,24.9c0.9,0,1.6,0.7,1.6,1.6c0,0.9-0.7,1.6-1.6,1.6s-1.6-0.7-1.6-1.6S37.5,24.9,38.3,24.9
			L38.3,24.9z M38.3,31.3c0.9,0,1.6,0.7,1.6,1.6c0,0.9-0.7,1.6-1.6,1.6s-1.6-0.7-1.6-1.6l0,0C36.8,32,37.5,31.3,38.3,31.3z
			 M38.3,36.6c0.9,0,1.6,0.7,1.6,1.6s-0.7,1.6-1.6,1.6s-1.6-0.7-1.6-1.6S37.5,36.6,38.3,36.6L38.3,36.6z M38.3,0
			c0.9,0,1.6,0.7,1.6,1.6s-0.7,1.6-1.6,1.6s-1.6-0.7-1.6-1.6S37.5,0,38.3,0C38.3,0,38.3,0,38.3,0z M7.2,12.2c0.9,0,1.6,0.7,1.6,1.6
			s-0.7,1.6-1.6,1.6s-1.6-0.7-1.6-1.6c0,0,0,0,0,0C5.6,12.9,6.3,12.2,7.2,12.2z M7.2,18.6c0.9,0,1.6,0.7,1.6,1.6
			c0,0.9-0.7,1.6-1.6,1.6c-0.9,0-1.6-0.7-1.6-1.6c0,0,0,0,0,0C5.6,19.3,6.3,18.6,7.2,18.6z M7.2,24.9c0.9,0,1.6,0.7,1.6,1.6
			c0,0.9-0.7,1.6-1.6,1.6c-0.9,0-1.6-0.7-1.6-1.6c0,0,0,0,0,0C5.6,25.6,6.3,24.9,7.2,24.9z M7.2,31.3c0.9,0,1.6,0.7,1.6,1.6
			c0,0.9-0.7,1.6-1.6,1.6s-1.6-0.7-1.6-1.6c0,0,0,0,0,0C5.6,32,6.3,31.3,7.2,31.3z M7.2,36.6c0.9,0,1.6,0.7,1.6,1.6
			c0,0.9-0.7,1.6-1.6,1.6c-0.9,0-1.6-0.7-1.6-1.6c0,0,0,0,0,0C5.6,37.3,6.3,36.6,7.2,36.6z M7.2,5.9c0.9,0,1.6,0.7,1.6,1.6
			S8.1,9,7.2,9S5.6,8.3,5.6,7.5c0,0,0,0,0,0C5.6,6.6,6.3,5.9,7.2,5.9z M7.2,0C8,0,8.8,0.7,8.8,1.6S8.1,3.2,7.2,3.2S5.6,2.5,5.6,1.6
			c0,0,0,0,0,0C5.6,0.7,6.3,0,7.2,0z M1.6,12.2c0.9,0,1.6,0.7,1.6,1.6s-0.7,1.6-1.6,1.6S0,14.7,0,13.8C0,12.9,0.7,12.2,1.6,12.2
			L1.6,12.2z M1.6,18.6c0.9,0,1.6,0.7,1.6,1.6c0,0.9-0.7,1.6-1.6,1.6S0,21,0,20.2C0,19.3,0.7,18.6,1.6,18.6L1.6,18.6z M1.6,24.9
			c0.9,0,1.6,0.7,1.6,1.6c0,0.9-0.7,1.6-1.6,1.6S0,27.4,0,26.5C0,25.6,0.7,24.9,1.6,24.9L1.6,24.9z M1.6,31.3c0.9,0,1.6,0.7,1.6,1.6
			c0,0.9-0.7,1.6-1.6,1.6S0,33.7,0,32.9c0,0,0,0,0,0C0,32,0.7,31.3,1.6,31.3z M1.6,36.6c0.9,0,1.6,0.7,1.6,1.6s-0.7,1.6-1.6,1.6
			S0,39,0,38.2C0,37.3,0.7,36.6,1.6,36.6L1.6,36.6z M1.6,5.9c0.9,0,1.6,0.7,1.6,1.6S2.5,9,1.6,9C0.7,9,0,8.3,0,7.4c0,0,0,0,0,0
			C0,6.6,0.7,5.9,1.6,5.9z M1.6,0c0.9,0,1.6,0.7,1.6,1.6S2.5,3.2,1.6,3.2S0,2.5,0,1.6C0,0.7,0.7,0,1.6,0C1.6,0,1.6,0,1.6,0z"/>
	</g>
</g>
</svg>
