<svg id="Layer_1" data-name="Layer 1" xmlns="http://www.w3.org/2000/svg" viewBox="0 0 296.3 43.2"><title>logo</title><path d="M150.8,362.7c1,1.5,4.1,6.2,12.7,6.2a11.27,11.27,0,0,0,4.4-.7c3-1.2,3.5-3.3,3.5-4.7,0-2.6-1.8-3.5-3.1-4.1a37,37,0,0,0-4.8-1.3l-4.9-1a38.82,38.82,0,0,1-5.2-1.4,10.37,10.37,0,0,1-6.9-10c0-7.8,6.6-12.8,16.2-12.8,8.8,0,13.6,4.3,16.5,8.3l-6.3,4.7c-1.4-2-4.1-6.1-10.6-6.1-4.1,0-7.7,1.9-7.7,5,0,3.5,3.8,4.2,7.5,4.9l4.2.9c5.5,1.2,13.3,3.4,13.3,12.2,0,9.4-8.7,13.2-17.4,13.2a27,27,0,0,1-7.3-.9,18.5,18.5,0,0,1-10.6-7.8Z" transform="translate(-144.3 -332.8)"/><path d="M223.1,363.4a21.31,21.31,0,0,1-3.5,6.1,18,18,0,0,1-14.1,6.3c-10.8,0-19.1-7.9-19.1-21.6,0-13.9,9-21.4,19.4-21.4,12.8,0,15.8,9.8,16.7,12.6l-7.7,2a10.88,10.88,0,0,0-1.5-4.1,8.61,8.61,0,0,0-7.4-3.6c-6.7,0-11.3,5.5-11.3,14.3,0,9.3,4.9,14.5,11.4,14.5a9.54,9.54,0,0,0,7.8-4,12.22,12.22,0,0,0,2.1-4.2Z" transform="translate(-144.3 -332.8)"/><path d="M264.2,333.9v40.9h-7.7V356.2H239v18.6h-7.7V333.9H239v15.5h17.6V333.9Z" transform="translate(-144.3 -332.8)"/><path d="M313.9,333.9v40.9h-7.5l.7-33.6-8.8,33.6h-6.9l-8.9-33.6.8,33.6h-7.5V333.9h11.1l8,30.4,7.8-30.4Z" transform="translate(-144.3 -332.8)"/><path d="M333,340.8v9.6h19.7V357H333v11h23v6.9H325.4V334h29.1v6.8Z" transform="translate(-144.3 -332.8)"/><path d="M398.5,363.4a21.31,21.31,0,0,1-3.5,6.1,18,18,0,0,1-14.1,6.3c-10.8,0-19.1-7.9-19.1-21.6,0-13.9,9-21.4,19.4-21.4,12.8,0,15.8,9.8,16.7,12.6l-7.7,2a10.88,10.88,0,0,0-1.5-4.1,8.61,8.61,0,0,0-7.4-3.6c-6.7,0-11.3,5.5-11.3,14.3,0,9.3,4.9,14.5,11.4,14.5a9.54,9.54,0,0,0,7.8-4,12.22,12.22,0,0,0,2.1-4.2Z" transform="translate(-144.3 -332.8)"/><path d="M426.3,349.4l14.3,25.5h-8.8l-10.9-19.3-6.7,7.7v11.6h-7.6V334h7.6v18.8L430.6,334h9Z" transform="translate(-144.3 -332.8)"/></svg>