<svg xmlns="http://www.w3.org/2000/svg" viewBox="0 0 31.68 31.68"><defs><style>.cls-1{fill:#fff;}</style></defs><title>icon_social_instagram</title><g id="Layer_2" data-name="Layer 2"><g id="Layer_1-2" data-name="Layer 1"><path class="cls-1" d="M15.46.92c-1.91,0-3,0-3.81,0S10.32,1,9.52,1a13.32,13.32,0,0,0-2,.24,8.87,8.87,0,0,0-1.55.45,7.62,7.62,0,0,0-1.34.67,7.34,7.34,0,0,0-1.22,1,7.25,7.25,0,0,0-1,1.22A7.62,7.62,0,0,0,1.7,5.93a8.87,8.87,0,0,0-.45,1.55,13.32,13.32,0,0,0-.24,2c0,.82-.06,1.37-.07,2.21s0,1.95,0,4.11,0,3.34,0,4.11,0,1.39.07,2.21a13.32,13.32,0,0,0,.24,2,8.87,8.87,0,0,0,.45,1.55,7.62,7.62,0,0,0,.67,1.34,6.87,6.87,0,0,0,1,1.22h0a6.87,6.87,0,0,0,1.22,1A7.62,7.62,0,0,0,5.93,30a8.87,8.87,0,0,0,1.55.45,13.32,13.32,0,0,0,2,.24c.82,0,1.37.06,2.21.07s1.95,0,4.11,0,3.34,0,4.11,0,1.39,0,2.21-.07a13.32,13.32,0,0,0,2-.24A8.87,8.87,0,0,0,25.75,30a7.62,7.62,0,0,0,1.34-.67,7.25,7.25,0,0,0,1.22-1,7.34,7.34,0,0,0,1-1.22A7.62,7.62,0,0,0,30,25.75a8.87,8.87,0,0,0,.45-1.55,13.32,13.32,0,0,0,.24-2c0-.8.06-1.33.07-2.13s0-1.9,0-3.81v-.76c0-1.91,0-3,0-3.81s0-1.33-.07-2.13a13.32,13.32,0,0,0-.24-2A8.87,8.87,0,0,0,30,5.93a7.62,7.62,0,0,0-.67-1.34,7.25,7.25,0,0,0-1-1.22,7.25,7.25,0,0,0-1.22-1,7.62,7.62,0,0,0-1.34-.67,8.87,8.87,0,0,0-1.55-.45,13.32,13.32,0,0,0-2-.24C21.36,1,20.83,1,20,.94s-1.9,0-3.81,0ZM11.63,0c.81,0,1.91,0,3.83,0h.76c1.92,0,3,0,3.83,0L22.2.09a14,14,0,0,1,2.18.26,9.25,9.25,0,0,1,1.7.49A8.14,8.14,0,0,1,29,2.72,8.14,8.14,0,0,1,30.84,5.6a9.25,9.25,0,0,1,.49,1.7,14,14,0,0,1,.26,2.18c0,.79.05,1.32.07,2.15s0,1.91,0,3.83v.76c0,1.92,0,3,0,3.83s0,1.36-.07,2.15a14,14,0,0,1-.26,2.18,9.25,9.25,0,0,1-.49,1.7,8.12,8.12,0,0,1-.76,1.5A7.38,7.38,0,0,1,29,29a8.14,8.14,0,0,1-2.88,1.88,9.25,9.25,0,0,1-1.7.49,14,14,0,0,1-2.18.26c-.82,0-1.35.06-2.23.07l-4.13,0-4.13,0c-.87,0-1.41,0-2.23-.07a14,14,0,0,1-2.18-.26,9.25,9.25,0,0,1-1.7-.49,8.12,8.12,0,0,1-1.5-.76A7.8,7.8,0,0,1,2.72,29h0A7.38,7.38,0,0,1,1.6,27.58a8.12,8.12,0,0,1-.76-1.5,9.25,9.25,0,0,1-.49-1.7A14,14,0,0,1,.09,22.2C.06,21.38,0,20.84,0,20s0-2.12,0-4.13,0-3.19,0-4.13,0-1.41.07-2.23A14,14,0,0,1,.35,7.3,9.25,9.25,0,0,1,.84,5.6,8.14,8.14,0,0,1,2.72,2.72,7.8,7.8,0,0,1,4.1,1.6,8.12,8.12,0,0,1,5.6.84,9.25,9.25,0,0,1,7.3.35,14,14,0,0,1,9.48.09L11.63,0ZM26.36,7.63a2.29,2.29,0,0,1-.68,1.63h0a2.29,2.29,0,0,1-3.26,0h0a2.29,2.29,0,0,1,0-3.26h0a2.29,2.29,0,0,1,3.26,0h0a2.29,2.29,0,0,1,.68,1.63ZM25,8.61a1.4,1.4,0,1,0-1,.4,1.38,1.38,0,0,0,1-.4ZM15.84,21.43a5.6,5.6,0,1,1,3.95-1.64,5.58,5.58,0,0,1-3.95,1.64Zm-3.3-2.29a4.68,4.68,0,1,0-1.36-3.3,4.67,4.67,0,0,0,1.36,3.3ZM15.84,8.4a7.44,7.44,0,1,0,5.26,2.18A7.46,7.46,0,0,0,15.84,8.4ZM9.93,9.93a8.35,8.35,0,1,1-2.45,5.91A8.34,8.34,0,0,1,9.93,9.93Zm5.91-7.16,4.05,0c.85,0,1.38,0,2.18.07a12.34,12.34,0,0,1,1.87.22,8.58,8.58,0,0,1,1.14.34,5.84,5.84,0,0,1,1,.52,5.46,5.46,0,0,1,.89.74h0a5.46,5.46,0,0,1,.74.89,5.84,5.84,0,0,1,.52,1,8.58,8.58,0,0,1,.34,1.14,12.34,12.34,0,0,1,.22,1.87c0,.8.06,1.33.07,2.18s0,2.07,0,4.05,0,3.12,0,4.05,0,1.38-.07,2.18a12.34,12.34,0,0,1-.22,1.87,9.07,9.07,0,0,1-.34,1.14,5.84,5.84,0,0,1-.52,1A6,6,0,0,1,27,27a5.14,5.14,0,0,1-.89.74,5.84,5.84,0,0,1-1,.52,8.58,8.58,0,0,1-1.14.34,12.34,12.34,0,0,1-1.87.22c-.8,0-1.33.06-2.19.07l-4,0-4,0c-.86,0-1.39,0-2.19-.07a12.34,12.34,0,0,1-1.87-.22,8.58,8.58,0,0,1-1.14-.34,5.84,5.84,0,0,1-1-.52A5.14,5.14,0,0,1,4.68,27a5.14,5.14,0,0,1-.74-.89,5.84,5.84,0,0,1-.52-1,9.07,9.07,0,0,1-.34-1.14,12.34,12.34,0,0,1-.22-1.87c0-.8-.06-1.33-.07-2.19s0-2.06,0-4,0-3.12,0-4,0-1.39.07-2.19a12.34,12.34,0,0,1,.22-1.87A8.58,8.58,0,0,1,3.42,6.6a5.84,5.84,0,0,1,.52-1,5.14,5.14,0,0,1,.74-.89,6,6,0,0,1,.89-.74,5.84,5.84,0,0,1,1-.52,8.58,8.58,0,0,1,1.14-.34,12.34,12.34,0,0,1,1.87-.22c.8,0,1.33-.06,2.18-.07l4.05,0Zm4,.94c-.75,0-1.9,0-4,0s-3.28,0-4,0-1.35,0-2.16.07A10.74,10.74,0,0,0,7.93,4a6.74,6.74,0,0,0-1,.3,4.72,4.72,0,0,0-.87.44,3.74,3.74,0,0,0-.74.61,4.42,4.42,0,0,0-.61.74,4.72,4.72,0,0,0-.44.87,6.74,6.74,0,0,0-.3,1,10.74,10.74,0,0,0-.2,1.72c0,.81-.06,1.34-.07,2.16s0,1.9,0,4,0,3.28,0,4,0,1.35.07,2.16A10.74,10.74,0,0,0,4,23.75a6.74,6.74,0,0,0,.3,1,4.72,4.72,0,0,0,.44.87A5,5,0,0,0,6.07,27a4.72,4.72,0,0,0,.87.44,6.74,6.74,0,0,0,1,.3,10.74,10.74,0,0,0,1.72.2c.81,0,1.34.06,2.16.07s1.9,0,4,0,3.29,0,4,0,1.35,0,2.16-.07a10.74,10.74,0,0,0,1.72-.2,6.74,6.74,0,0,0,1-.3,4.72,4.72,0,0,0,.87-.44,4.42,4.42,0,0,0,.74-.61,3.74,3.74,0,0,0,.61-.74,4.72,4.72,0,0,0,.44-.87,6.74,6.74,0,0,0,.3-1A10.74,10.74,0,0,0,27.9,22c0-.81.06-1.34.07-2.16s0-1.9,0-4,0-3.28,0-4,0-1.35-.07-2.16a10.74,10.74,0,0,0-.2-1.72,6.74,6.74,0,0,0-.3-1A4.72,4.72,0,0,0,27,6.07a3.74,3.74,0,0,0-.61-.74h0a3.74,3.74,0,0,0-.74-.61,4.72,4.72,0,0,0-.87-.44,6.74,6.74,0,0,0-1-.3A10.74,10.74,0,0,0,22,3.78c-.81,0-1.34-.06-2.16-.07Z"/></g></g></svg>