<svg xmlns="http://www.w3.org/2000/svg" viewBox="0 0 31.68 31.68"><defs><style>.cls-1{fill:#fff;}</style></defs><title>icon_social_dribbble</title><g id="Layer_2" data-name="Layer 2"><g id="Layer_1-2" data-name="Layer 1"><path class="cls-1" d="M15.84,1A14.89,14.89,0,1,0,26.36,5.32,14.84,14.84,0,0,0,15.84,1ZM4.64,4.64A15.84,15.84,0,1,1,0,15.84,15.79,15.79,0,0,1,4.64,4.64Zm23.78,11h0a31,31,0,0,0-4.66-.43,24.56,24.56,0,0,0-4.27.33.48.48,0,0,1-.53-.31l-.46-1c-.18-.38-.34-.74-.5-1.06a.47.47,0,0,1,.22-.64l.05,0a19.69,19.69,0,0,0,3.88-2.21,16.06,16.06,0,0,0,3-2.86.48.48,0,0,1,.67-.08.23.23,0,0,1,.07.07A13.13,13.13,0,0,1,29,15.1a.48.48,0,0,1-.45.5Zm-4.67-1.38a31.25,31.25,0,0,1,4.22.34,12.11,12.11,0,0,0-.8-3.24,12,12,0,0,0-1.65-2.91A17.29,17.29,0,0,1,22.71,11a20.57,20.57,0,0,1-3.65,2.13l.3.63.33.75a24.28,24.28,0,0,1,4.06-.28ZM24,6.1a14.05,14.05,0,0,1-2.84,2.76A18.31,18.31,0,0,1,17.38,11a.47.47,0,0,1-.61-.21c-.64-1.18-1.34-2.35-2.08-3.51S13.17,5,12.34,3.84a.49.49,0,0,1,.1-.67.38.38,0,0,1,.17-.08,15.77,15.77,0,0,1,1.58-.31,13.06,13.06,0,0,1,1.65-.11,12.9,12.9,0,0,1,4.23.71,13.39,13.39,0,0,1,3.8,2A.49.49,0,0,1,24,6.1Zm-3.41,2a13.7,13.7,0,0,0,2.35-2.2,12.11,12.11,0,0,0-7-2.26,12.52,12.52,0,0,0-1.52.1l-.77.13c.68.94,1.33,1.89,1.94,2.85S16.8,8.82,17.4,9.9a16.74,16.74,0,0,0,3.14-1.81Zm-10-3.84c.85,1.12,1.65,2.26,2.42,3.42S14.4,10,15.06,11.19a.47.47,0,0,1-.19.65l-.09,0a34,34,0,0,1-5.19,1,49.47,49.47,0,0,1-6.06.38.47.47,0,0,1-.48-.47.49.49,0,0,1,0-.12A13.17,13.17,0,0,1,9.9,4.1a.5.5,0,0,1,.61.15Zm1.62,3.94c-.68-1-1.39-2-2.15-3a12.4,12.4,0,0,0-3.7,3.13,12.24,12.24,0,0,0-2.13,4.08A48.3,48.3,0,0,0,9.47,12a33,33,0,0,0,4.46-.86c-.57-1-1.17-2-1.8-2.93ZM2.67,15.84c0-.07,0-.14,0-.22V15.5A.49.49,0,0,1,3.18,15a51.6,51.6,0,0,0,6.8-.42,34,34,0,0,0,5.78-1.25.48.48,0,0,1,.58.27l.44.9.42.93a.47.47,0,0,1-.25.63l-.06,0a18.28,18.28,0,0,0-5.75,3,21.36,21.36,0,0,0-4.65,5.09.48.48,0,0,1-.66.14.77.77,0,0,1-.13-.12,13.22,13.22,0,0,1-3-8.39Zm7.43-.28A53.89,53.89,0,0,1,3.63,16a12,12,0,0,0,.73,4,12.18,12.18,0,0,0,1.7,3.16,22.35,22.35,0,0,1,4.49-4.78,19.18,19.18,0,0,1,5.56-3l-.2-.42-.26-.54a36.88,36.88,0,0,1-5.55,1.16Zm-2.44,10a19.76,19.76,0,0,1,4.41-5,16.23,16.23,0,0,1,5.57-2.91.49.49,0,0,1,.59.29q.89,2.32,1.55,4.76a48.31,48.31,0,0,1,1.08,4.88.48.48,0,0,1-.32.54,13.6,13.6,0,0,1-2.31.65,12.66,12.66,0,0,1-2.39.23,12.83,12.83,0,0,1-4.26-.72,13.11,13.11,0,0,1-3.82-2.08.47.47,0,0,1-.1-.64Zm5-4.25a19,19,0,0,0-4,4.4,12.13,12.13,0,0,0,3.19,1.67,12,12,0,0,0,3.95.66,11.43,11.43,0,0,0,2.21-.21,11.91,11.91,0,0,0,1.8-.48c-.26-1.49-.59-3-1-4.4s-.85-2.84-1.37-4.25a15.4,15.4,0,0,0-4.83,2.61Zm9.75,5.15c-.27-1.48-.62-3-1-4.41s-.88-2.91-1.41-4.33a.48.48,0,0,1,.28-.62l.1,0a23.06,23.06,0,0,1,3.86-.19,29,29,0,0,1,4.22.45.47.47,0,0,1,.39.55v0a13.24,13.24,0,0,1-5.68,8.86.47.47,0,0,1-.66-.13.37.37,0,0,1-.08-.18Zm-.1-4.67c.35,1.24.65,2.5.9,3.77a12.5,12.5,0,0,0,2.91-3.16A12.12,12.12,0,0,0,27.8,18.2a27.5,27.5,0,0,0-3.61-.35,21.21,21.21,0,0,0-3.11.11q.69,1.91,1.23,3.84Z"/></g></g></svg>