<svg xmlns="http://www.w3.org/2000/svg" viewBox="0 0 16.48 31.68"><defs><style>.cls-1{fill:#FD433E;}</style></defs><title>icon_social_facebook</title><g id="Layer_2" data-name="Layer 2"><g id="Layer_1-2" data-name="Layer 1"><path class="cls-1" d="M15.47,11.6H10.91a.49.49,0,0,1-.48-.48v-3s0-.06,0-.09c.35-2.65,3.74-2.79,5.06-2.74v-4C13.8.9,6.74-.07,5.19,5.71a.31.31,0,0,1,0,.13A8.86,8.86,0,0,0,5,7.54C4.9,9,4.91,10.79,4.91,11.12a.48.48,0,0,1-.47.48H1V16H4.68a.48.48,0,0,1,.48.48v14.2h5.16V16.52A.47.47,0,0,1,10.8,16H15l.43-4.44Zm-4.08-1h4.66a.49.49,0,0,1,.43.52L16,16.53a.47.47,0,0,1-.48.47H11.28V31.2a.49.49,0,0,1-.48.48H4.68a.48.48,0,0,1-.48-.48V17H.48A.48.48,0,0,1,0,16.52v-5.4a.47.47,0,0,1,.48-.48H4c0-.72,0-2,.06-3.15a10,10,0,0,1,.22-1.93.32.32,0,0,1,0-.09C6.21-1.78,15.44.21,16.06.36a.46.46,0,0,1,.32.2.5.5,0,0,1,.08.27c0,1.65,0,3.33,0,5a.49.49,0,0,1-.53.43s-4.23-.49-4.54,1.87v2.53Z"/></g></g></svg>