<svg xmlns="http://www.w3.org/2000/svg" viewBox="0 0 31.68 20.52"><defs><style>.cls-1{fill:#FD433E;}</style></defs><title>icon_social_behance</title><g id="Layer_2" data-name="Layer 2"><g id="Layer_1-2" data-name="Layer 1"><path class="cls-1" d="M27.62,2.06H20.29V3h7.33v-1Zm-7.81-1H28.1a.48.48,0,0,1,.48.48V3.5A.48.48,0,0,1,28.1,4H19.81a.47.47,0,0,1-.48-.48V1.58a.47.47,0,0,1,.48-.48ZM30.6,10.81a6.58,6.58,0,0,0-1-2.72h0a5.53,5.53,0,0,0-1-1.14,4.93,4.93,0,0,0-1.23-.78,7,7,0,0,0-1.47-.46,8.74,8.74,0,0,0-1.66-.16A7.38,7.38,0,0,0,21.55,6a5.83,5.83,0,0,0-2.06,1.36,5.67,5.67,0,0,0-1.35,2.2,9.56,9.56,0,0,0-.45,3.08,9,9,0,0,0,.5,3.2,4.87,4.87,0,0,0,1.47,2.08,7.24,7.24,0,0,0,2.18,1.22,7.47,7.47,0,0,0,2.49.41,7.9,7.9,0,0,0,2.86-.48,5.5,5.5,0,0,0,2.09-1.43h0a5.62,5.62,0,0,0,.86-1.17,3,3,0,0,0,.25-.56h-2.9c-.08.13-.16.25-.25.37a3.19,3.19,0,0,1-.48.49l0,0a3.24,3.24,0,0,1-1,.55,4.37,4.37,0,0,1-1.29.19,4.8,4.8,0,0,1-1.22-.15,3.74,3.74,0,0,1-1.06-.46,3.35,3.35,0,0,1-1.25-1.36,5,5,0,0,1-.46-2,.48.48,0,0,1,.46-.5h9.82c0-.41,0-.78,0-1.11a10.29,10.29,0,0,0-.1-1.14Zm-.25-3.26a7.65,7.65,0,0,1,1.2,3.12,11.93,11.93,0,0,1,.11,1.23c0,.46,0,1,0,1.6v0a.49.49,0,0,1-.48.48H21.44a3.53,3.53,0,0,0,.32,1.11,2.35,2.35,0,0,0,.89,1h0a3,3,0,0,0,.8.34,3.7,3.7,0,0,0,1,.12,3.45,3.45,0,0,0,1-.14,2.22,2.22,0,0,0,.73-.39h0a3.58,3.58,0,0,0,.33-.34,3.35,3.35,0,0,0,.3-.48.49.49,0,0,1,.43-.26h3.82a.48.48,0,0,1,.42.53A4.05,4.05,0,0,1,31,16.92a6.79,6.79,0,0,1-1,1.38h0A6.45,6.45,0,0,1,27.53,20a8.91,8.91,0,0,1-3.2.55,8.41,8.41,0,0,1-2.81-.47,7.91,7.91,0,0,1-2.46-1.38,5.69,5.69,0,0,1-1.76-2.48,10,10,0,0,1-.57-3.54,10.41,10.41,0,0,1,.51-3.39,6.73,6.73,0,0,1,1.57-2.57,6.8,6.8,0,0,1,2.4-1.57,8.14,8.14,0,0,1,3-.53A9.21,9.21,0,0,1,26,4.77a7.93,7.93,0,0,1,1.67.53,6.31,6.31,0,0,1,1.46.92,6.89,6.89,0,0,1,1.18,1.33ZM20.54,11a5.1,5.1,0,0,1,.38-1.32,3.79,3.79,0,0,1,.73-1.09,3,3,0,0,1,1.12-.72,4,4,0,0,1,1.43-.23,4.24,4.24,0,0,1,1.35.21,3.51,3.51,0,0,1,1.15.67,3.06,3.06,0,0,1,.81,1.1,4.29,4.29,0,0,1,.33,1.45.47.47,0,0,1-.44.51H21a.49.49,0,0,1-.48-.48s0-.07,0-.11Zm1.25-.93a4.08,4.08,0,0,0-.19.56h5.22a2.66,2.66,0,0,0-.19-.62,2,2,0,0,0-.56-.77,2.47,2.47,0,0,0-.83-.48,3.11,3.11,0,0,0-1-.16,3.06,3.06,0,0,0-1.1.17,2,2,0,0,0-.76.49,2.82,2.82,0,0,0-.55.81ZM13,8.89a6.64,6.64,0,0,0,.76-.47,3.65,3.65,0,0,0,.53-.49l0,0a3.14,3.14,0,0,0,.55-1A4.86,4.86,0,0,0,15,5.42,5.06,5.06,0,0,0,14.84,4a4,4,0,0,0-.58-1.19A4,4,0,0,0,12.5,1.46,7.46,7.46,0,0,0,9.7,1H1V19.08H9.08q.72,0,1.35-.06a11.51,11.51,0,0,0,1.24-.19,5,5,0,0,0,1.07-.34h0a4.34,4.34,0,0,0,.88-.52l0,0a4.63,4.63,0,0,0,.65-.6,5.23,5.23,0,0,0,.56-.75l0,0a4.7,4.7,0,0,0,.56-1.28,5.46,5.46,0,0,0,.2-1.48,5.54,5.54,0,0,0-.17-1.4,3.91,3.91,0,0,0-.5-1.14,3.36,3.36,0,0,0-.81-.87A4.08,4.08,0,0,0,13,9.77a.47.47,0,0,1,0-.88Zm1.33.3-.11.07a4.35,4.35,0,0,1,.55.36,4.61,4.61,0,0,1,1,1.12,4.88,4.88,0,0,1,.61,1.42,6.08,6.08,0,0,1,.21,1.64,6.57,6.57,0,0,1-.23,1.73,5.74,5.74,0,0,1-.68,1.54v0A6.62,6.62,0,0,1,15,18a6.1,6.1,0,0,1-.79.73h0a4.94,4.94,0,0,1-1.07.63l0,0a6.88,6.88,0,0,1-1.26.4c-.43.09-.88.15-1.35.2s-1,.07-1.44.07H.48A.48.48,0,0,1,0,19.56V.48A.47.47,0,0,1,.48,0H9.71a8.68,8.68,0,0,1,3.15.57A5,5,0,0,1,15,2.23h0a4.87,4.87,0,0,1,.73,1.48A5.89,5.89,0,0,1,16,5.42a5.77,5.77,0,0,1-.24,1.72A4.2,4.2,0,0,1,15,8.51l0,0a4.41,4.41,0,0,1-.7.65Zm-10-5.88H8.44a10.84,10.84,0,0,1,1.31.08,6.26,6.26,0,0,1,1.09.25h0a2,2,0,0,1,1,.85,2.6,2.6,0,0,1,.32,1.35A3,3,0,0,1,12,7.07a2,2,0,0,1-.77.87,3.64,3.64,0,0,1-1,.41,5.36,5.36,0,0,1-1.24.13H4.29A.48.48,0,0,1,3.81,8V3.79a.48.48,0,0,1,.48-.48Zm4.15,1H4.77V7.52H8.92a4.49,4.49,0,0,0,1-.11,2.3,2.3,0,0,0,.75-.29,1.09,1.09,0,0,0,.4-.45,2.12,2.12,0,0,0,.14-.82A1.7,1.7,0,0,0,11,5a1.07,1.07,0,0,0-.53-.44,4.9,4.9,0,0,0-.89-.2,10.13,10.13,0,0,0-1.18-.07Zm2.62,12.07a3.5,3.5,0,0,1-1,.29,7,7,0,0,1-1.18.09H4.29a.47.47,0,0,1-.48-.48V11.16a.47.47,0,0,1,.48-.48H9a8.76,8.76,0,0,1,1.12.09,3.46,3.46,0,0,1,.94.28,2.39,2.39,0,0,1,1.12,1,2.83,2.83,0,0,1,.37,1.5,3.52,3.52,0,0,1-.37,1.69,2.55,2.55,0,0,1-1.15,1.12Zm-1.12-.65a2.77,2.77,0,0,0,.7-.21,1.65,1.65,0,0,0,.73-.7,2.73,2.73,0,0,0,.25-1.25,2.08,2.08,0,0,0-.23-1,1.52,1.52,0,0,0-.7-.59,2.43,2.43,0,0,0-.7-.2,5.68,5.68,0,0,0-1-.08H4.77v4.12H8.92a6.2,6.2,0,0,0,1-.07Z"/></g></g></svg>