<svg xmlns="http://www.w3.org/2000/svg" viewBox="0 0 31.68 31.69"><defs><style>.cls-1{fill:#FD433E;}</style></defs><title>icon_social_linkedin</title><g id="Layer_2" data-name="Layer 2"><g id="Layer_1-2" data-name="Layer 1"><path class="cls-1" d="M7.43,31.69H1.09a.47.47,0,0,1-.48-.48V10.73a.47.47,0,0,1,.48-.48H7.43a.47.47,0,0,1,.48.48V31.21a.47.47,0,0,1-.48.48Zm-5.86-1H7V11.21H1.57V30.73ZM4.23,8.52a4.19,4.19,0,0,1-3-1.25,4.27,4.27,0,0,1,0-6,4.2,4.2,0,0,1,6,0,4.27,4.27,0,0,1,0,6,4.19,4.19,0,0,1-3,1.25ZM1.92,6.6a3.26,3.26,0,0,0,4.62,0,3.33,3.33,0,0,0,0-4.68,3.26,3.26,0,0,0-4.62,0,3.33,3.33,0,0,0,0,4.68ZM31.2,31.69H24.89a.47.47,0,0,1-.48-.48V20.46a5.28,5.28,0,0,0-.78-3.15,2.58,2.58,0,0,0-2.2-1,3.09,3.09,0,0,0-2.49,1,4.73,4.73,0,0,0-.89,3.1V31.21a.47.47,0,0,1-.48.48H11.49a.47.47,0,0,1-.48-.48V10.73a.47.47,0,0,1,.48-.48h6.08a.47.47,0,0,1,.48.48v1.34a7.62,7.62,0,0,1,5.69-2.45,7.67,7.67,0,0,1,5.86,2.32,9.07,9.07,0,0,1,2.08,6.3v13a.48.48,0,0,1-.48.48Zm-5.83-1h5.35V18.24a8.15,8.15,0,0,0-1.83-5.66,6.76,6.76,0,0,0-5.15-2A6.6,6.6,0,0,0,18,13.69a.49.49,0,0,1-.44.27.48.48,0,0,1-.48-.48V11.21H12V30.73h5.12V20.46a5.67,5.67,0,0,1,1.12-3.72,4,4,0,0,1,3.22-1.36,3.49,3.49,0,0,1,3,1.36,6.15,6.15,0,0,1,1,3.72V30.73Z"/></g></g></svg>