<svg xmlns="http://www.w3.org/2000/svg" xmlns:xlink="http://www.w3.org/1999/xlink" viewBox="0 0 494.18 233.97"><defs><style>.cls-1{fill:#cb8e55;}.cls-2{fill:#d09966;}.cls-3{fill:#d5a577;}.cls-4{fill:#e0bb99;}.cls-5{fill:#ead2bb;}.cls-6{fill:#f5e8dd;}.cls-7{fill:url(#Dégradé_sans_nom_94);}</style><linearGradient id="Dégradé_sans_nom_94" x1="208.41" y1="471.22" x2="90.74" y2="348.14" gradientTransform="translate(186.25 -294.47) rotate(10.32)" gradientUnits="userSpaceOnUse"><stop offset="0"/><stop offset="0.15" stop-opacity="0.85"/><stop offset="0.7" stop-opacity="0.26"/><stop offset="1" stop-opacity="0"/></linearGradient></defs><title>ocre</title><g id="Calque_2" data-name="Calque 2"><g id="nuancier"><g id="ocre"><path class="cls-1" d="M435.3,116.43l52.3-18a9.9,9.9,0,0,0,3.1-16.86L399.92,4.19a9.91,9.91,0,0,0-9.73-1.79L327.53,24.67Z"/><polygon class="cls-2" points="435.3 116.43 327.27 24.44 260.49 48.18 368.46 140.18 435.3 116.43"/><polygon class="cls-3" points="368.65 140.19 260.63 48.21 193.84 71.95 301.82 163.95 368.65 140.19"/><polygon class="cls-4" points="302.01 163.97 193.98 71.98 127.2 95.72 235.17 187.72 302.01 163.97"/><polygon class="cls-5" points="235.37 187.74 127.34 95.75 60.55 119.49 168.53 211.49 235.37 187.74"/><path class="cls-6" d="M168.72,211.5l-108-92L5.08,139.29a6.84,6.84,0,0,0-2.15,11.65L97.7,231.69a9.51,9.51,0,0,0,9.36,1.73Z"/><path class="cls-7" d="M2.41,149.87l95,80.63a9.9,9.9,0,0,0,9.74,1.77l380-135.88a9.89,9.89,0,0,0,3.07-16.86L399.24,2.35A9.88,9.88,0,0,0,389.51.58L4.52,138.26A6.81,6.81,0,0,0,2.41,149.87Z"/></g></g></g></svg>