<svg viewBox="0 0 112 71" version="1.1" xmlns="http://www.w3.org/2000/svg" xmlns:xlink="http://www.w3.org/1999/xlink"><title>Logo White@3x</title><defs><path id="path-1" d="M65.81 29.082V.129H.133v28.953h65.675z"/><path id="path-3" d="M91.708 33.053H0V.038h91.708z"/></defs><g id="Symbols" stroke="none" stroke-width="1" fill="none" fill-rule="evenodd"><g id="Logo-White"><g id="logo-white@2x"><g id="Group-3" transform="translate(45.02 .056)"><mask id="mask-2" fill="#fff"><use xlink:href="#path-1"/></mask><path d="M60.436 11.82h-4.437l3.985 3.64h-7.412c-1.85-6.027-8.635-8.573-12.898-7.53-1.435-3.54-5.741-4.793-8.829-3.757C29.018 1.842 25.052.13 21.518.13c-5.096 0-9.811 3.002-11.855 7.578-5.741.734-9.53 4.818-9.53 9.675 0 5.51 4.911 9.994 11.244 9.994 1.456 0 3.24-.317 4.462-.969 2.654 1.727 6.439 2.675 10.188 2.675 3.894 0 7.815-1.007 10.733-2.77 2.915 1.974 6.984 1.349 9.327-1.273 1.276-1.428 1.836-3.262 1.836-5.172 0-3.726-2.981-6.694-6.659-6.694-2.152 0-3.9.745-5.274 1.934l2.057 2.906c.586-.553 1.595-1.219 3.032-1.219 1.406 0 3.071.858 3.147 3.127.067 2.014-1.708 3.586-3.339 3.586-1.63 0-2.94-.627-3.897-1.816-2.797 2.418-7.372 3.432-10.963 3.432-4.925 0-8.188-1.742-9.821-2.933-1.249.778-3.327 1.228-4.829 1.228-4.133 0-7.256-2.708-7.256-6.036 0-3.135 3.193-6.135 8.19-6.093 1.136-4.186 4.92-7.209 9.207-7.202 4.324.008 6.436 2.187 8.076 4.5 1.033-1.14 3.694-1.655 5.571-.528 1.583.953 2.318 2.434 2.284 4.257 1.66-.81 5.69-1.308 8.35.624 2.66 1.933 3.37 3.876 3.66 6.479h10.507l-3.953 3.609h4.437l5.36-5.597-5.374-5.61z" id="Fill-1" fill="#FFF" mask="url(#mask-2)"/></g><g id="Group-6" transform="translate(0 36.247)"><mask id="mask-4" fill="#fff"><use xlink:href="#path-3"/></mask><path d="M80.821 13.054c-2.892 0-3.887-1.692-3.887-3.905 0-2.17.995-3.905 3.887-3.905 2.896 0 3.89 1.735 3.89 3.905 0 2.213-.994 3.905-3.89 3.905zm-19.83-.998c-.735.607-1.77.998-3.153.998-2.896 0-3.974-1.692-3.974-3.905 0-2.212 1.078-3.905 3.974-3.905 1.383 0 2.418.347 3.153.956v5.856zm-3.429 15.857c-1.827.195-2.719-.491-2.719-1.62 0-2.11 2.368-2.617 4.783-3.148a78.55 78.55 0 0 0 1.31-.299c-.306 3.812-1.835 4.901-3.374 5.067zM34.15 13.054c-2.895 0-3.887-1.692-3.887-3.905 0-2.17.992-3.905 3.887-3.905 2.893 0 3.887 1.735 3.887 3.905 0 2.213-.994 3.905-3.887 3.905zm-20.025-.998c-.732.607-1.77.998-3.152.998-2.894 0-3.975-1.692-3.975-3.905 0-2.212 1.08-3.905 3.975-3.905 1.382 0 2.42.347 3.152.956v5.856zm-3.426 15.857c-1.83.195-2.72-.491-2.72-1.62 0-2.11 2.367-2.617 4.782-3.148.433-.095.873-.195 1.31-.299-.306 3.812-1.834 4.901-3.372 5.067zM80.821.038c-7.472 0-10.884 3.688-10.884 9.11 0 1.298.315 2.804.714 3.782-.55.487-1.382 1.102-2.662 1.834V.38h-6.234l.087 1.392C60.638.742 59.02.038 56.585.038c-2.696 0-4.838.663-6.425 1.826-2.293.383-5.376.652-8.444.154C39.943.755 37.44.038 34.15.038c-7.474 0-10.885 3.688-10.885 9.11 0 1.344.21 2.58.639 3.68-.546.5-1.407 1.15-2.78 1.936V.38h-6.228l.08 1.392C13.95.742 12.083.038 9.719.038 3.326.038 0 3.726 0 9.148c0 5.425 3.326 9.112 9.718 9.112 1.227 0 3.018-.243 4.406-.867v.785c-.557.204-1.12.383-2.412.679-3.075.705-9.917 1.695-9.917 7.582 0 4.123 4.008 6.614 8.854 6.614 4.844 0 10.474-2.777 10.474-11.975v-.86c2.055-.975 4.221-2.219 5.86-3.684 1.743 1.1 4.11 1.726 7.166 1.726 7.473 0 10.886-3.687 10.886-9.111 0-.728-.064-1.424-.19-2.086a17.48 17.48 0 0 0 2.211-.025c-.123.669-.19 1.373-.19 2.11 0 5.425 3.325 9.112 9.72 9.112 1.2 0 3.628-.519 4.405-.867v.785c-.43.212-1.216.409-2.413.679-3.076.701-9.917 1.695-9.917 7.582 0 4.123 4.008 6.614 8.853 6.614s10.475-2.777 10.475-11.975v-.86c2.023-.96 4.15-2.181 5.78-3.615 1.73 1.056 4.062 1.657 7.052 1.657 7.475 0 10.887-3.687 10.887-9.111C91.708 3.33 88.18.038 80.82.038z" id="Fill-4" fill="#FFF" mask="url(#mask-4)"/></g><path d="M92.86 38.284v-.434h.418c.138 0 .224.057.224.217s-.111.217-.224.217h-.417zm.61.213a.447.447 0 0 0 .296-.43c0-.28-.19-.462-.49-.462h-.684v1.414h.269v-.491h.347l.257.494h.308l-.304-.525zm.686-.153c0 .579-.465 1.047-1.038 1.047a1.043 1.043 0 0 1-1.038-1.047c0-.575.465-1.045 1.038-1.045s1.038.47 1.038 1.045zm.258 0a1.29 1.29 0 0 0-1.296-1.282 1.29 1.29 0 0 0-1.295 1.282c0 .71.58 1.285 1.295 1.285a1.29 1.29 0 0 0 1.296-1.285z" id="Fill-7" fill="#FFF"/></g></g></g></svg>